<?xml version="1.0" encoding="UTF-8"?>
<svg width="23px" height="22px" viewBox="0 0 23 22" version="1.1" xmlns="http://www.w3.org/2000/svg" xmlns:xlink="http://www.w3.org/1999/xlink">
    <!-- Generator: Sketch 64 (93537) - https://sketch.com -->
    <title>icon_telegram</title>
    <desc>Created with Sketch.</desc>
    <g id="Page-1" stroke="none" stroke-width="1" fill="none" fill-rule="evenodd">
        <g id="Artboard" transform="translate(-327.000000, -106.000000)" fill="#BCBCCB">
            <g id="Group-7" transform="translate(274.000000, 106.000000)">
                <g id="icon_telegram" transform="translate(53.200000, 0.000000)">
                    <path d="M21.9886676,0.920758929 L18.8458705,19.7779018 C18.8049484,20.0152542 18.6739999,20.1994041 18.4530208,20.3303571 C18.3384391,20.3958337 18.2115827,20.4285714 18.0724477,20.4285714 C17.9824192,20.4285714 17.8842078,20.4081103 17.7778105,20.3671875 L12.2165327,18.0959821 L9.24560729,21.7176339 C9.09828793,21.9058789 8.89777293,22 8.64405627,22 C8.53765896,22 8.44763181,21.9836311 8.37397214,21.9508929 C8.21846838,21.8936009 8.09365802,21.7974337 7.99953732,21.6623884 C7.90541662,21.5273431 7.85835698,21.377977 7.85835698,21.2142857 L7.85835698,16.9296875 L18.4652974,3.92857143 L5.34166394,15.2845982 L0.492426141,13.2957589 C0.189603026,13.181175 0.0259173112,12.9561029 0.0013640856,12.6205357 C-0.0150047314,12.2931531 0.115943841,12.0517121 0.39421373,11.8962054 L20.8223953,0.110491071 C20.9451614,0.0368299888 21.07611,0 21.2152449,0 C21.3789331,0 21.5262502,0.0450144308 21.6572007,0.135044643 C21.9272862,0.331474196 22.0377741,0.593376339 21.9886676,0.920758929 Z" id="Shape-Copy-5"></path>
                </g>
            </g>
        </g>
    </g>
</svg>