<?xml version="1.0" encoding="UTF-8"?>
<svg width="22px" height="22px" viewBox="0 0 22 22" version="1.1" xmlns="http://www.w3.org/2000/svg" xmlns:xlink="http://www.w3.org/1999/xlink">
    <!-- Generator: Sketch 64 (93537) - https://sketch.com -->
    <title>icon_aparat</title>
    <desc>Created with Sketch.</desc>
    <g id="Page-1" stroke="none" stroke-width="1" fill="none" fill-rule="evenodd">
        <g id="Artboard" transform="translate(-517.000000, -106.000000)" fill="#BCBCCB" fill-rule="nonzero">
            <g id="Group-7" transform="translate(274.000000, 106.000000)">
                <g id="LI-Bug.svg.original" transform="translate(144.000000, 0.000000)">
                    <g id="Path_2520-2">
                        <g id="icon_aparat" transform="translate(99.000000, 0.000000)">
                            <g id="Group" transform="translate(0.500000, 0.000000)">
                                <path d="M9,0.581993978 L6.89966395,0.106949073 C5.98554875,-0.106840185 5.0102518,0.00259538304 4.19010259,0.410981997 C3.36995339,0.819368611 2.77275271,1.49294543 2.53096495,2.28230714 L2,4 C3.74152128,2.13216118 6.24598656,0.909264411 9,0.581993978 L9,0.581993978 Z" id="Path"></path>
                                <path d="M0.547140622,13 L0.1029131,14.9960669 C-0.329500774,16.9394985 0.6403528,18.9332125 2.26924342,19.4493609 L4,20 C2.15255922,18.2673219 0.919798219,15.768139 0.547140622,13 L0.547140622,13 Z" id="Path"></path>
                                <path d="M18.8466615,3.57741935 L17,3 C18.8820394,4.70447671 20.1056619,7.22561352 20.3974188,10 L20.9042917,7.74193548 C21.3097717,5.92344984 20.3897335,4.0613496 18.8466615,3.57741935 Z" id="Path"></path>
                                <path d="M13,21.4297134 L15.1264151,21.9029649 C16.9910094,22.3106808 18.9038463,21.3962219 19.3990566,19.860368 L20,18 C18.3064288,19.8583273 15.7908021,21.0908814 13,21.4297134 Z" id="Path" transform="translate(16.500000, 20.000000) rotate(-5.000000) translate(-16.500000, -20.000000) "></path>
                                <path d="M10.5,2 C5.25329488,2 1,6.25329488 1,11.5 C1,16.7467051 5.25329488,21 10.5,21 C15.7467051,21 20,16.7467051 20,11.5 C20,6.25329488 15.7467051,2 10.5,2 L10.5,2 Z M5.12318596,6.73877827 C5.40683218,5.26805354 6.82888566,4.30561967 8.29966914,4.58896107 C9.77045261,4.87230248 10.7331812,6.29415646 10.4501446,7.76499863 C10.167108,9.23584079 8.74545361,10.198864 7.27455282,9.9161323 C6.56781086,9.78028467 5.9440265,9.36914012 5.54052849,8.77321385 C5.13703048,8.17728758 4.98689894,7.44543562 5.12318596,6.73877827 L5.12318596,6.73877827 Z M9.07003037,14.9466757 C8.78477029,16.41659 7.36238836,17.3773188 5.89228352,17.0930422 C4.42217868,16.8087656 3.46049846,15.3870267 3.74379146,13.916732 C4.02708446,12.4464373 5.44817961,11.4838062 6.91866352,11.7661154 C7.62607537,11.9019271 8.25041382,12.313546 8.6539976,12.9102004 C9.05758138,13.5068548 9.20726164,14.2395378 9.07003037,14.9466757 Z M10.2210597,12.7504219 C9.5683225,12.6241476 9.14103082,11.9932676 9.26597433,11.3402743 C9.39091784,10.687281 10.0209256,10.2587043 10.6741722,10.3823165 C11.3274188,10.5059288 11.7572788,11.1350617 11.6349983,11.7885589 C11.5759575,12.1040878 11.3935134,12.3830398 11.1280993,12.5635937 C10.8626852,12.7441475 10.5362217,12.811391 10.2210597,12.7504219 L10.2210597,12.7504219 Z M15.8800202,16.2548093 C15.6731934,17.3326491 14.8372316,18.179637 13.7621943,18.4005687 C12.687157,18.6215005 11.584924,18.1728325 10.9697967,17.2639131 C10.3546695,16.3549937 10.3478838,15.1649624 10.9526059,14.2490873 C11.5573279,13.3332122 12.6543727,12.8720037 13.7318596,13.0806615 C15.2008166,13.3651284 16.161991,14.7853711 15.8800202,16.2548093 L15.8800202,16.2548093 Z M14.0845427,11.2274722 C13.0068837,11.0209303 12.1598146,10.1854587 11.9384369,9.11074926 C11.7170592,8.03603982 12.1649851,6.93381423 13.0732869,6.31818745 C13.9815887,5.70256068 15.1713276,5.69481344 16.0875696,6.29855931 C17.0038116,6.90230518 17.4660536,7.99860401 17.2586905,9.0761053 C17.1235451,9.78276859 16.7131831,10.4067895 16.1178988,10.8108612 C15.5226146,11.2149329 14.7911822,11.3659482 14.0845427,11.2306784 L14.0845427,11.2274722 Z" id="Shape"></path>
                            </g>
                        </g>
                    </g>
                </g>
            </g>
        </g>
    </g>
</svg>