<?xml version="1.0" encoding="UTF-8"?>
<svg width="19px" height="19px" viewBox="0 0 19 19" version="1.1" xmlns="http://www.w3.org/2000/svg" xmlns:xlink="http://www.w3.org/1999/xlink">
    <!-- Generator: Sketch 64 (93537) - https://sketch.com -->
    <title>Group 19</title>
    <desc>Created with Sketch.</desc>
    <g id="Vitrin-Web-sait" stroke="none" stroke-width="1" fill="none" fill-rule="evenodd">
        <g id="Web---v3---App-Detail-Mobile---Download" transform="translate(-17.000000, -17.000000)" fill="#4A4A4A" stroke="#8E8E93" stroke-width="0.75">
            <g id="Group-19" transform="translate(18.000000, 18.000000)">
                <g id="Group">
                    <path d="M7.56611225,14.4621945 C3.76362526,14.4621945 0.670029954,11.3685992 0.670029954,7.56611225 C0.670029954,3.76362526 3.76362526,0.670029954 7.56611225,0.670029954 C11.3685992,0.670029954 14.4621945,3.76362526 14.4621945,7.56611225 C14.4621945,11.3685992 11.3685992,14.4621945 7.56611225,14.4621945 L7.56611225,14.4621945 Z M17,16.5262888 L13.1451837,12.6714055 C14.3785078,11.3247123 15.1322245,9.53184613 15.1322245,7.56611225 C15.1322245,3.39417074 11.7381208,0 7.56611225,0 C3.39410374,0 0,3.39417074 0,7.56611225 C0,11.7381208 3.39410374,15.1322245 7.56611225,15.1322245 C9.53184613,15.1322245 11.3247123,14.3785078 12.6714055,13.1451167 L16.5262888,17 L17,16.5262888 Z" id="Fill-1"></path>
                </g>
            </g>
        </g>
    </g>
</svg>